<?xml version="1.0" encoding="UTF-8" standalone="no"?>
<svg
   xmlns:dc="http://purl.org/dc/elements/1.1/"
   xmlns:cc="http://creativecommons.org/ns#"
   xmlns:rdf="http://www.w3.org/1999/02/22-rdf-syntax-ns#"
   xmlns:svg="http://www.w3.org/2000/svg"
   xmlns="http://www.w3.org/2000/svg"
   xmlns:sodipodi="http://sodipodi.sourceforge.net/DTD/sodipodi-0.dtd"
   xmlns:inkscape="http://www.inkscape.org/namespaces/inkscape"
   enable-background="new 0 0 56.693 56.693"
   height="52.5312"
   id="Layer_1"
   version="1.1"
   viewBox="0 0 49.249001 49.248"
   width="52.532269"
   xml:space="preserve"
   inkscape:version="0.92.1 r"
   sodipodi:docname="amazon.svg"><metadata
     id="metadata13"><rdf:RDF><cc:Work
         rdf:about=""><dc:format>image/svg+xml</dc:format><dc:type
           rdf:resource="http://purl.org/dc/dcmitype/StillImage" /></cc:Work></rdf:RDF></metadata><defs
     id="defs11" /><sodipodi:namedview
     pagecolor="#ffffff"
     bordercolor="#666666"
     borderopacity="1"
     objecttolerance="10"
     gridtolerance="10"
     guidetolerance="10"
     inkscape:pageopacity="0"
     inkscape:pageshadow="2"
     inkscape:window-width="1366"
     inkscape:window-height="742"
     id="namedview9"
     showgrid="false"
     inkscape:zoom="4.1627714"
     inkscape:cx="24.376367"
     inkscape:cy="25.905967"
     inkscape:window-x="0"
     inkscape:window-y="26"
     inkscape:window-maximized="1"
     inkscape:current-layer="Layer_1" /><g
     id="g3"
     style="fill:#ffffff;fill-opacity:1"
     transform="translate(-3.722,-5.157)"><path
       d="M 28.346,5.157 C 14.747,5.157 3.722,16.18 3.722,29.78 c 0,13.6 11.024,24.625 24.624,24.625 13.602,0 24.625,-11.025 24.625,-24.625 0,-13.6 -11.024,-24.623 -24.625,-24.623 z m 2.152,14.025 C 30.029,18.514 29.16,18.176 28.355,18.176 h -0.268 c -1.34,0.135 -2.545,0.871 -2.879,2.346 -0.066,0.334 -0.268,0.668 -0.67,0.736 L 20.79,20.789 c -0.269,-0.066 -0.67,-0.268 -0.538,-0.803 0.805,-4.221 4.42,-5.693 7.834,-5.891 h 0.805 c 1.875,0 4.285,0.535 5.824,1.939 1.875,1.74 1.674,4.086 1.674,6.627 v 6.027 c 0,1.809 0.738,2.611 1.473,3.549 0.203,0.334 0.27,0.738 -0.066,1.006 -0.734,0.67 -2.141,1.875 -2.945,2.545 -0.268,0.197 -0.604,0.197 -0.938,0.064 -1.271,-1.07 -1.473,-1.539 -2.209,-2.543 -1.273,1.338 -2.344,2.074 -3.617,2.479 -0.803,0.197 -1.674,0.332 -2.744,0.332 -3.215,0 -5.76,-2.006 -5.76,-5.959 0,-3.145 1.676,-5.289 4.153,-6.295 1.271,-0.602 2.812,-0.869 4.352,-1.07 1.004,-0.135 2.01,-0.201 2.879,-0.268 v -0.533 c 0,-0.936 0.068,-2.008 -0.469,-2.813 z M 40.639,40.28 c -0.389,0.312 -0.805,0.592 -1.219,0.84 l -0.018,0.012 c -3.164,1.988 -7.242,3.207 -10.848,3.285 -0.113,0.004 -0.225,0.006 -0.336,0.006 -5.668,-0.002 -9.882,-3.102 -13.727,-6.439 -0.188,-0.15 -0.32,-0.377 -0.318,-0.625 -0.002,-0.193 0.08,-0.383 0.217,-0.508 0.138,-0.131 0.326,-0.199 0.511,-0.199 0.146,0 0.289,0.039 0.433,0.117 4.098,2.273 8.159,4.578 13.133,4.578 0.115,0 0.232,0 0.348,-0.004 3.166,-0.068 6.584,-0.842 9.84,-2.162 v -0.004 l 0.301,-0.119 0.23,-0.096 c 0.156,-0.068 0.322,-0.143 0.484,-0.207 0.145,-0.068 0.301,-0.104 0.451,-0.104 0.477,0.002 0.918,0.352 0.926,0.871 0.004,0.295 -0.164,0.577 -0.408,0.758 z m 1.859,1.375 c -0.158,0.123 -0.34,0.207 -0.555,0.209 h -0.004 c -0.145,0 -0.316,-0.049 -0.447,-0.174 -0.135,-0.127 -0.199,-0.314 -0.195,-0.471 0,-0.107 0.021,-0.205 0.057,-0.295 0.146,-0.387 0.367,-0.969 0.551,-1.553 0.186,-0.578 0.324,-1.176 0.318,-1.498 0.002,-0.084 -0.008,-0.141 -0.016,-0.168 -0.006,-0.002 -0.014,-0.006 -0.025,-0.012 -0.035,-0.018 -0.098,-0.037 -0.182,-0.055 -0.168,-0.039 -0.41,-0.057 -0.682,-0.055 -0.385,0 -0.828,0.035 -1.246,0.076 -0.486,0.074 -0.902,0.113 -1.186,0.172 l -0.023,0.006 -0.027,0.002 c -0.029,0.002 -0.061,0.004 -0.096,0.004 -0.145,0 -0.309,-0.039 -0.449,-0.15 -0.143,-0.115 -0.227,-0.307 -0.223,-0.477 0.01,-0.309 0.18,-0.51 0.383,-0.66 0.326,-0.238 0.678,-0.438 1.064,-0.596 v -0.018 l 0.33,-0.107 0.01,-0.002 0.586,-0.197 v 0.039 c 0.578,-0.127 1.156,-0.176 1.68,-0.176 0.729,0.002 1.332,0.09 1.746,0.248 0.141,0.061 0.268,0.115 0.402,0.262 l 0.016,0.02 0.014,0.021 c 0.133,0.199 0.201,0.438 0.213,0.758 l 0.004,0.188 c -0.022,1.2 -0.536,3.325 -2.018,4.659 z"
       id="path5"
       style="fill:#ffffff;fill-opacity:1"
       inkscape:connector-curvature="0" /><path
       d="m 30.967,25.612 c -1.004,0 -2.008,0.064 -2.879,0.266 -1.605,0.471 -2.879,1.475 -2.879,3.617 0,1.674 0.871,2.811 2.344,2.811 0.201,0 0.402,-0.066 0.535,-0.066 0.871,-0.201 1.676,-0.805 2.143,-1.74 0.805,-1.34 0.736,-2.547 0.736,-4.084 z"
       id="path7"
       style="fill:#ffffff;fill-opacity:1"
       inkscape:connector-curvature="0" /></g></svg>