<?xml version="1.0" encoding="UTF-8" standalone="no"?>
<!-- Created with Inkscape (http://www.inkscape.org/) -->

<svg
   xmlns:dc="http://purl.org/dc/elements/1.1/"
   xmlns:cc="http://creativecommons.org/ns#"
   xmlns:rdf="http://www.w3.org/1999/02/22-rdf-syntax-ns#"
   xmlns:svg="http://www.w3.org/2000/svg"
   xmlns="http://www.w3.org/2000/svg"
   xmlns:sodipodi="http://sodipodi.sourceforge.net/DTD/sodipodi-0.dtd"
   xmlns:inkscape="http://www.inkscape.org/namespaces/inkscape"
   version="1.1"
   width="214.504"
   height="214.82001"
   id="svg2816"
   xml:space="preserve"
   inkscape:version="0.92.1 r"
   sodipodi:docname="flattr.svg"><metadata
     id="metadata916"><rdf:RDF><cc:Work
         rdf:about=""><dc:format>image/svg+xml</dc:format><dc:type
           rdf:resource="http://purl.org/dc/dcmitype/StillImage" /><dc:title>Flattr-Logo</dc:title></cc:Work></rdf:RDF></metadata><sodipodi:namedview
     pagecolor="#ffffff"
     bordercolor="#666666"
     borderopacity="1"
     objecttolerance="10"
     gridtolerance="10"
     guidetolerance="10"
     inkscape:pageopacity="0"
     inkscape:pageshadow="2"
     inkscape:window-width="1366"
     inkscape:window-height="742"
     id="namedview914"
     showgrid="false"
     fit-margin-top="10"
     fit-margin-left="10"
     fit-margin-right="10"
     fit-margin-bottom="10"
     inkscape:zoom="1.6576471"
     inkscape:cx="-26.257379"
     inkscape:cy="107.22982"
     inkscape:window-x="0"
     inkscape:window-y="26"
     inkscape:window-maximized="1"
     inkscape:current-layer="g2826" /><title
     id="title2901">Flattr-Logo</title><defs
     id="defs2820"><linearGradient
       x1="0"
       y1="0"
       x2="1"
       y2="0"
       id="linearGradient2840"
       gradientUnits="userSpaceOnUse"
       gradientTransform="matrix(0,143.73594,143.73594,0,160.79948,264.24583)"
       spreadMethod="pad"><stop
         id="stop2842"
         style="stop-color:#ea5f29;stop-opacity:1"
         offset="0" /><stop
         id="stop2844"
         style="stop-color:#fabd1f;stop-opacity:1"
         offset="1" /></linearGradient><linearGradient
       x1="0"
       y1="0"
       x2="1"
       y2="0"
       id="linearGradient2860"
       gradientUnits="userSpaceOnUse"
       gradientTransform="matrix(0,-143.73541,-143.73541,0,171.59948,396.92916)"
       spreadMethod="pad"><stop
         id="stop2862"
         style="stop-color:#abd33c;stop-opacity:1"
         offset="0" /><stop
         id="stop2864"
         style="stop-color:#6cb02f;stop-opacity:1"
         offset="1" /></linearGradient><clipPath
       id="clipPath2872"><path
         d="M 0,634.96107 H 898.016 V 0 H 0 Z"
         id="path2874"
         inkscape:connector-curvature="0"
         style="stroke-width:1.06666672" /></clipPath></defs><g
     transform="matrix(1.25,0,0,-1.25,-105.06731,530.45884)"
     id="g2826"><g
       transform="translate(3.6559801,7.8508055)"
       id="g2828"
       style="fill:#ffffff;fill-opacity:0.73631841"><g
         id="g2830"
         style="fill:#ffffff;fill-opacity:0.73631841"><g
           id="g2836"
           style="fill:#ffffff;fill-opacity:0.73631841"><g
             id="g2838"
             style="fill:#ffffff;fill-opacity:0.73631841"><path
               d="m 144.40213,407.98293 c -36.7264,0 -55.47093,-21.1872 -55.47093,-60.7456 v 0 -27.63306 -55.35894 l 35.97653,36.07147 v 42.15787 c 0,16.38826 4.336,26.81706 18.88214,29.1584 v 0 c 5.0816,0.9952 15.6576,0.6464 22.38186,0.6464 v 0 -25.03147 c 0,-0.22827 0.0309,-0.63573 0.0896,-0.8448 v 0 c 0.2816,-1.01333 1.1968,-1.75573 2.28054,-1.75787 v 0 c 0.61333,-10e-4 1.1872,0.31787 1.7792,0.9024 v 0 l 62.34666,62.4256 -41.8496,0.01 z"
               id="path2846"
               style="fill:#ffffff;stroke:none;stroke-width:1.06666672;fill-opacity:0.73631841"
               inkscape:connector-curvature="0" /></g></g></g></g><g
       transform="translate(3.6559801,7.8508055)"
       id="g2848"
       style="fill:#ffffff;fill-opacity:0.91044778"><g
         id="g2850"
         style="fill:#ffffff;fill-opacity:0.91044778"><g
           id="g2856"
           style="fill:#ffffff;fill-opacity:0.91044778"><g
             id="g2858"
             style="fill:#ffffff;fill-opacity:0.91044778"><path
               d="m 207.4912,360.85867 v -42.1568 c 0,-16.38827 -4.33707,-26.81814 -18.88213,-29.15947 v 0 c -5.0816,-0.99413 -15.6576,-0.64533 -22.38187,-0.64533 v 0 25.0304 c 0,0.2272 -0.0309,0.63573 -0.0896,0.8448 v 0 c -0.2816,1.0144 -1.19573,1.75573 -2.28053,1.75786 v 0 c -0.61334,0.002 -1.1872,-0.31786 -1.7792,-0.90133 v 0 l -62.34667,-62.4256 41.8496,-0.01 h 46.416 c 36.7264,0 55.47093,21.1872 55.47093,60.74453 v 0 27.63414 55.35786 z"
               id="path2866"
               style="fill:#ffffff;stroke:none;stroke-width:1.06666672;fill-opacity:0.91044778"
               inkscape:connector-curvature="0" /></g></g></g></g><g
       transform="translate(3.6559801,7.8508055)"
       id="g2868"><g
         clip-path="url(#clipPath2872)"
         id="g2870"><g
           transform="translate(533.37504,283.92811)"
           id="g2876" /><g
           transform="translate(440.72501,260.0208)"
           id="g2880" /><g
           transform="translate(663.776,295.43541)"
           id="g2884" /><g
           transform="translate(388.54005,385.71979)"
           id="g2888" /><g
           transform="translate(806.88853,358.72288)"
           id="g2892" /><g
           transform="translate(583.49792,295.45312)"
           id="g2896" /></g></g></g></svg>