<?xml version="1.0" encoding="UTF-8" standalone="no"?>
<svg
   xmlns:dc="http://purl.org/dc/elements/1.1/"
   xmlns:cc="http://creativecommons.org/ns#"
   xmlns:rdf="http://www.w3.org/1999/02/22-rdf-syntax-ns#"
   xmlns:svg="http://www.w3.org/2000/svg"
   xmlns="http://www.w3.org/2000/svg"
   xmlns:sodipodi="http://sodipodi.sourceforge.net/DTD/sodipodi-0.dtd"
   xmlns:inkscape="http://www.inkscape.org/namespaces/inkscape"
   width="92.985001"
   height="53.006001"
   viewBox="0 0 92.985 53.006"
   version="1.1"
   id="svg4542"
   sodipodi:docname="soundcloud.svg"
   inkscape:version="0.92.1 r">
  <metadata
     id="metadata4548">
    <rdf:RDF>
      <cc:Work
         rdf:about="">
        <dc:format>image/svg+xml</dc:format>
        <dc:type
           rdf:resource="http://purl.org/dc/dcmitype/StillImage" />
      </cc:Work>
    </rdf:RDF>
  </metadata>
  <defs
     id="defs4546" />
  <sodipodi:namedview
     pagecolor="#ffffff"
     bordercolor="#666666"
     borderopacity="1"
     objecttolerance="10"
     gridtolerance="10"
     guidetolerance="10"
     inkscape:pageopacity="0"
     inkscape:pageshadow="2"
     inkscape:window-width="1366"
     inkscape:window-height="742"
     id="namedview4544"
     showgrid="false"
     inkscape:zoom="8.6788191"
     inkscape:cx="46.4925"
     inkscape:cy="26.618223"
     inkscape:window-x="0"
     inkscape:window-y="26"
     inkscape:window-maximized="1"
     inkscape:current-layer="svg4542" />
  <linearGradient
     id="SVGID_1_"
     gradientUnits="userSpaceOnUse"
     x1="46.492699"
     y1="0"
     x2="46.492699"
     y2="53.006302">
    <stop
       offset="0"
       style="stop-color:#ffffff;stop-opacity:0.85572141"
       id="stop4535" />
    <stop
       offset="1"
       style="stop-color:#fffbfa;stop-opacity:1"
       id="stop4537" />
  </linearGradient>
  <path
     d="m 1.053,24.152 c -0.194,0 -0.348,0.15 -0.373,0.364 L 0,29.681 0.68,34.757 c 0.025,0.214 0.179,0.363 0.373,0.363 0.188,0 0.341,-0.148 0.371,-0.361 v 0 -10e-4 c 0,0 0,0 0,10e-4 L 2.23,29.681 1.424,24.515 C 1.395,24.302 1.24,24.152 1.053,24.152 Z M 4.877,21.33 C 4.845,21.108 4.686,20.955 4.49,20.955 c -0.197,0 -0.36,0.158 -0.387,0.375 0,0.002 -0.914,8.351 -0.914,8.351 l 0.914,8.166 c 0.026,0.219 0.189,0.377 0.387,0.377 0.195,0 0.354,-0.154 0.386,-0.375 l 1.04,-8.168 z m 14.404,-7.703 c -0.375,0 -0.685,0.307 -0.703,0.697 l -0.728,15.364 0.728,9.929 c 0.019,0.388 0.328,0.694 0.703,0.694 0.373,0 0.682,-0.307 0.704,-0.696 v 0.003 l 0.823,-9.93 -0.823,-15.364 c -0.022,-0.39 -0.331,-0.697 -0.704,-0.697 z m -7.455,5.34 c -0.288,0 -0.523,0.23 -0.546,0.537 l -0.82,10.18 0.82,9.849 c 0.022,0.305 0.258,0.535 0.546,0.535 0.285,0 0.52,-0.23 0.545,-0.535 l 0.932,-9.849 -0.932,-10.182 c -0.025,-0.305 -0.26,-0.535 -0.545,-0.535 z M 26.857,40.31 c 0.465,0 0.843,-0.375 0.862,-0.855 L 28.433,29.693 27.72,9.238 c -0.019,-0.48 -0.397,-0.855 -0.862,-0.855 -0.469,0 -0.848,0.376 -0.863,0.856 0,10e-4 -0.633,20.453 -0.633,20.453 l 0.633,9.766 c 0.015,0.476 0.394,0.852 0.862,0.852 z m 15.51,0.046 c 0.64,0 1.168,-0.527 1.18,-1.175 v 0.007 -0.007 L 44.045,29.699 43.547,6.075 C 43.536,5.428 43.007,4.9 42.367,4.9 c -0.641,0 -1.17,0.527 -1.18,1.176 l -0.445,23.615 c 0,0.015 0.445,9.496 0.445,9.496 0.01,0.642 0.54,1.169 1.18,1.169 z m -7.814,-0.037 c 0.557,0 1.006,-0.447 1.021,-1.017 v 0.007 L 36.18,29.695 35.573,9.092 c -0.015,-0.57 -0.464,-1.016 -1.021,-1.016 -0.561,0 -1.01,0.446 -1.022,1.016 l -0.539,20.604 0.54,9.612 c 0.012,0.564 0.461,1.011 1.022,1.011 z m -19.014,-0.09 c 0.331,0 0.599,-0.265 0.624,-0.614 l 0.878,-9.931 -0.878,-9.447 c -0.024,-0.349 -0.292,-0.612 -0.624,-0.612 -0.336,0 -0.604,0.265 -0.625,0.616 l -0.773,9.443 0.773,9.93 c 0.022,0.35 0.289,0.615 0.625,0.615 z M 8.143,39.685 c 0.242,0 0.438,-0.191 0.466,-0.455 L 9.595,29.682 8.61,19.774 C 8.581,19.509 8.385,19.318 8.143,19.318 c -0.245,0 -0.441,0.192 -0.466,0.456 0,10e-4 -0.868,9.908 -0.868,9.908 l 0.868,9.546 c 0.024,0.265 0.22,0.457 0.466,0.457 z M 38.445,8.749 c -0.605,0 -1.09,0.481 -1.102,1.097 l -0.492,19.851 0.492,9.552 c 0.012,0.608 0.496,1.089 1.102,1.089 0.604,0 1.086,-0.48 1.1,-1.096 V 39.25 L 40.097,29.698 39.545,9.844 C 39.531,9.23 39.049,8.749 38.445,8.749 Z M 23.055,40.33 c 0.418,0 0.763,-0.341 0.783,-0.776 l 0.768,-9.863 -0.768,-18.878 c -0.021,-0.436 -0.365,-0.776 -0.783,-0.776 -0.422,0 -0.766,0.341 -0.784,0.776 0,10e-4 -0.68,18.878 -0.68,18.878 l 0.681,9.867 c 0.017,0.431 0.361,0.772 0.783,0.772 z m 8.576,-0.931 v -0.005 l 0.66,-9.7 L 31.631,8.55 C 31.615,8.025 31.201,7.613 30.69,7.613 c -0.514,0 -0.928,0.411 -0.942,0.937 l -0.586,21.143 0.587,9.705 c 0.014,0.52 0.428,0.931 0.941,0.931 0.512,0 0.924,-0.411 0.941,-0.934 z M 81.549,17.506 c -1.567,0 -3.062,0.317 -4.424,0.888 C 76.215,8.086 67.571,0 57.027,0 54.447,0 51.932,0.508 49.711,1.367 48.848,1.701 48.618,2.045 48.61,2.712 v 36.3 c 0.009,0.7 0.552,1.283 1.235,1.352 0.029,0.003 31.499,0.019 31.703,0.019 6.316,0 11.437,-5.121 11.437,-11.438 0,-6.317 -5.12,-11.439 -11.436,-11.439 z M 46.272,2.68 c -0.687,0 -1.251,0.564 -1.261,1.257 l -0.516,25.765 0.517,9.351 c 0.009,0.683 0.573,1.246 1.26,1.246 0.685,0 1.249,-0.563 1.259,-1.256 v 0.011 L 48.092,29.702 47.531,3.935 C 47.521,3.244 46.957,2.68 46.272,2.68 Z M 9.236,47.654 C 7.883,47.336 7.517,47.166 7.517,46.63 c 0,-0.378 0.305,-0.769 1.219,-0.769 0.781,0 1.391,0.317 1.939,0.878 l 1.231,-1.194 c -0.805,-0.841 -1.78,-1.341 -3.108,-1.341 -1.684,0 -3.049,0.951 -3.049,2.5 0,1.682 1.098,2.182 2.67,2.547 1.609,0.365 1.902,0.61 1.902,1.159 0,0.646 -0.477,0.927 -1.487,0.927 -0.817,0 -1.585,-0.28 -2.183,-0.977 L 5.42,51.458 c 0.646,0.951 1.891,1.548 3.316,1.548 2.33,0 3.354,-1.097 3.354,-2.718 0,-1.854 -1.5,-2.317 -2.854,-2.634 z m 7.854,-3.45 c -2.328,0 -3.705,1.804 -3.705,4.401 0,2.597 1.377,4.4 3.705,4.4 2.328,0 3.707,-1.803 3.707,-4.4 0,-2.597 -1.379,-4.401 -3.707,-4.401 z m 0,7.108 c -1.377,0 -1.951,-1.183 -1.951,-2.706 0,-1.524 0.574,-2.707 1.951,-2.707 1.379,0 1.951,1.183 1.951,2.707 0,1.523 -0.572,2.706 -1.951,2.706 z M 27.686,49.13 c 0,1.365 -0.672,2.207 -1.756,2.207 -1.085,0 -1.743,-0.866 -1.743,-2.231 v -4.769 h -1.708 v 4.793 c 0,2.486 1.391,3.876 3.451,3.876 2.17,0 3.463,-1.427 3.463,-3.9 v -4.769 h -1.707 z m 9.07,-1.183 c 0,0.476 0.024,1.548 0.024,1.865 -0.11,-0.22 -0.39,-0.646 -0.597,-0.964 l -3.025,-4.512 h -1.633 v 8.536 h 1.683 v -3.756 c 0,-0.476 -0.024,-1.548 -0.024,-1.865 0.109,0.219 0.391,0.646 0.597,0.964 l 3.134,4.657 h 1.524 v -8.536 h -1.683 z m 6.547,-3.61 h -2.67 v 8.536 h 2.547 c 2.195,0 4.366,-1.269 4.366,-4.268 0,-3.122 -1.805,-4.268 -4.243,-4.268 z m -0.123,6.878 h -0.84 v -5.219 h 0.902 c 1.805,0 2.549,0.865 2.549,2.609 0,1.561 -0.818,2.61 -2.611,2.61 z m 9.645,-5.317 c 0.768,0 1.256,0.342 1.561,0.927 l 1.585,-0.731 c -0.537,-1.109 -1.513,-1.89 -3.122,-1.89 -2.229,0 -3.791,1.804 -3.791,4.401 0,2.694 1.499,4.4 3.73,4.4 1.549,0 2.573,-0.719 3.158,-1.926 l -1.438,-0.854 c -0.451,0.757 -0.903,1.086 -1.671,1.086 -1.28,0 -2.024,-1.171 -2.024,-2.706 -0.001,-1.584 0.733,-2.707 2.012,-2.707 z m 6.331,-1.561 h -1.707 v 8.536 h 5.13 v -1.684 h -3.423 z m 7.92,-0.133 c -2.33,0 -3.707,1.804 -3.707,4.401 0,2.597 1.377,4.4 3.707,4.4 2.328,0 3.706,-1.803 3.706,-4.4 0,-2.597 -1.378,-4.401 -3.706,-4.401 z m 0,7.108 c -1.379,0 -1.951,-1.183 -1.951,-2.706 0,-1.524 0.572,-2.707 1.951,-2.707 1.376,0 1.949,1.183 1.949,2.707 0,1.523 -0.573,2.706 -1.949,2.706 z M 77.67,49.13 c 0,1.365 -0.669,2.207 -1.754,2.207 -1.087,0 -1.744,-0.866 -1.744,-2.231 v -4.769 h -1.707 v 4.793 c 0,2.486 1.39,3.876 3.451,3.876 2.17,0 3.462,-1.427 3.462,-3.9 V 44.337 H 77.67 Z m 6.511,-4.793 h -2.669 v 8.536 h 2.547 c 2.196,0 4.365,-1.269 4.365,-4.268 0,-3.122 -1.804,-4.268 -4.243,-4.268 z m -0.122,6.878 h -0.841 v -5.219 h 0.903 c 1.803,0 2.547,0.865 2.547,2.609 0,1.561 -0.817,2.61 -2.609,2.61 z"
     id="path4540"
     inkscape:connector-curvature="0"
     style="fill:url(#SVGID_1_)" />
</svg>
