<?xml version="1.0" encoding="UTF-8" standalone="no"?>
<svg
   xmlns:dc="http://purl.org/dc/elements/1.1/"
   xmlns:cc="http://creativecommons.org/ns#"
   xmlns:rdf="http://www.w3.org/1999/02/22-rdf-syntax-ns#"
   xmlns:svg="http://www.w3.org/2000/svg"
   xmlns="http://www.w3.org/2000/svg"
   xmlns:sodipodi="http://sodipodi.sourceforge.net/DTD/sodipodi-0.dtd"
   xmlns:inkscape="http://www.inkscape.org/namespaces/inkscape"
   enable-background="new 0 0 56.693 56.693"
   height="52.499199"
   id="Layer_1"
   version="1.1"
   viewBox="0 0 30.906 49.217998"
   width="32.9664"
   xml:space="preserve"
   inkscape:version="0.92.1 r"
   sodipodi:docname="tumblr.svg"><metadata
     id="metadata9"><rdf:RDF><cc:Work
         rdf:about=""><dc:format>image/svg+xml</dc:format><dc:type
           rdf:resource="http://purl.org/dc/dcmitype/StillImage" /></cc:Work></rdf:RDF></metadata><defs
     id="defs7" /><sodipodi:namedview
     pagecolor="#ffffff"
     bordercolor="#666666"
     borderopacity="1"
     objecttolerance="10"
     gridtolerance="10"
     guidetolerance="10"
     inkscape:pageopacity="0"
     inkscape:pageshadow="2"
     inkscape:window-width="1366"
     inkscape:window-height="742"
     id="namedview5"
     showgrid="false"
     inkscape:zoom="4.1627714"
     inkscape:cx="-34.912564"
     inkscape:cy="25.907034"
     inkscape:window-x="0"
     inkscape:window-y="26"
     inkscape:window-maximized="1"
     inkscape:current-layer="Layer_1" /><path
     d="m 17.595,0 v 11.381 h 11.379 v 8.788 H 17.595 v 12.619 c 0,2.855 -0.035,4.502 0.266,5.311 0.301,0.805 1.055,1.641 1.875,2.123 1.092,0.654 2.332,0.98 3.734,0.98 2.492,0 4.971,-0.809 7.436,-2.428 v 7.76 c -2.1,0.99 -4.006,1.688 -5.711,2.084 -1.707,0.396 -3.549,0.6 -5.531,0.6 -2.25,0 -3.578,-0.285 -5.305,-0.85 -1.73,-0.572 -3.205,-1.385 -4.424,-2.43 C 8.71,44.885 7.867,43.766 7.395,42.583 6.922,41.397 6.686,39.679 6.686,37.429 V 20.169 H 0 V 13.198 C 1.933,12.571 4.174,11.671 5.55,10.499 6.932,9.323 8.038,7.917 8.87,6.272 9.708,4.631 10.282,2.538 10.597,10e-4 h 6.998 z"
     id="path3"
     style="fill:#ffffff;fill-opacity:1"
     inkscape:connector-curvature="0" /></svg>