<?xml version="1.0" encoding="UTF-8" standalone="no"?>
<svg
   xmlns:dc="http://purl.org/dc/elements/1.1/"
   xmlns:cc="http://creativecommons.org/ns#"
   xmlns:rdf="http://www.w3.org/1999/02/22-rdf-syntax-ns#"
   xmlns:svg="http://www.w3.org/2000/svg"
   xmlns="http://www.w3.org/2000/svg"
   xmlns:sodipodi="http://sodipodi.sourceforge.net/DTD/sodipodi-0.dtd"
   xmlns:inkscape="http://www.inkscape.org/namespaces/inkscape"
   enable-background="new 0 0 56.693 56.693"
   height="56.693px"
   id="Layer_1"
   version="1.1"
   viewBox="0 0 56.693 56.693"
   width="56.693px"
   xml:space="preserve"
   inkscape:version="0.91 r13725"
   sodipodi:docname="tumblr.svg"><metadata
     id="metadata9"><rdf:RDF><cc:Work
         rdf:about=""><dc:format>image/svg+xml</dc:format><dc:type
           rdf:resource="http://purl.org/dc/dcmitype/StillImage" /></cc:Work></rdf:RDF></metadata><defs
     id="defs7" /><sodipodi:namedview
     pagecolor="#ffffff"
     bordercolor="#666666"
     borderopacity="1"
     objecttolerance="10"
     gridtolerance="10"
     guidetolerance="10"
     inkscape:pageopacity="0"
     inkscape:pageshadow="2"
     inkscape:window-width="1366"
     inkscape:window-height="738"
     id="namedview5"
     showgrid="false"
     inkscape:zoom="4.1627714"
     inkscape:cx="-16.455384"
     inkscape:cy="28.3465"
     inkscape:window-x="0"
     inkscape:window-y="30"
     inkscape:window-maximized="1"
     inkscape:current-layer="Layer_1" /><path
     d="M30.507,5.188v11.381h11.379v8.788H30.507v12.619c0,2.855-0.035,4.502,0.266,5.311c0.301,0.805,1.055,1.641,1.875,2.123  c1.092,0.654,2.332,0.98,3.734,0.98c2.492,0,4.971-0.809,7.436-2.428v7.76c-2.1,0.99-4.006,1.688-5.711,2.084  c-1.707,0.396-3.549,0.6-5.531,0.6c-2.25,0-3.578-0.285-5.305-0.85c-1.73-0.572-3.205-1.385-4.424-2.43  c-1.225-1.053-2.068-2.172-2.54-3.355c-0.473-1.186-0.709-2.904-0.709-5.154V25.357h-6.686v-6.971  c1.933-0.627,4.174-1.527,5.55-2.699c1.382-1.176,2.488-2.582,3.32-4.227c0.838-1.641,1.412-3.734,1.727-6.271H30.507z"
     id="path3"
     style="fill:#ffffff;fill-opacity:1" /></svg>