<?xml version="1.0" encoding="UTF-8" standalone="no"?>
<svg
   xmlns:dc="http://purl.org/dc/elements/1.1/"
   xmlns:cc="http://creativecommons.org/ns#"
   xmlns:rdf="http://www.w3.org/1999/02/22-rdf-syntax-ns#"
   xmlns:svg="http://www.w3.org/2000/svg"
   xmlns="http://www.w3.org/2000/svg"
   xmlns:sodipodi="http://sodipodi.sourceforge.net/DTD/sodipodi-0.dtd"
   xmlns:inkscape="http://www.inkscape.org/namespaces/inkscape"
   enable-background="new 0 0 56.693 56.693"
   height="42.702934"
   id="Layer_1"
   version="1.1"
   viewBox="0 0 49.262999 40.034"
   width="52.547199"
   xml:space="preserve"
   inkscape:version="0.92.1 r"
   sodipodi:docname="twitter.svg"><metadata
     id="metadata9"><rdf:RDF><cc:Work
         rdf:about=""><dc:format>image/svg+xml</dc:format><dc:type
           rdf:resource="http://purl.org/dc/dcmitype/StillImage" /></cc:Work></rdf:RDF></metadata><defs
     id="defs7" /><sodipodi:namedview
     pagecolor="#ffffff"
     bordercolor="#666666"
     borderopacity="1"
     objecttolerance="10"
     gridtolerance="10"
     guidetolerance="10"
     inkscape:pageopacity="0"
     inkscape:pageshadow="2"
     inkscape:window-width="1366"
     inkscape:window-height="742"
     id="namedview5"
     showgrid="false"
     inkscape:zoom="4.1627714"
     inkscape:cx="-18.586078"
     inkscape:cy="21.5913"
     inkscape:window-x="0"
     inkscape:window-y="26"
     inkscape:window-maximized="1"
     inkscape:current-layer="Layer_1" /><path
     d="m 49.263,4.739 c -1.811,0.805 -3.76,1.348 -5.805,1.591 2.088,-1.25 3.689,-3.23 4.444,-5.592 -1.953,1.159 -4.115,2 -6.418,2.454 C 39.641,1.228 37.014,0 34.107,0 28.526,0 24.001,4.525 24.001,10.107 c 0,0.791 0.089,1.562 0.262,2.303 C 15.863,11.988 8.415,7.965 3.43,1.85 2.56,3.342 2.062,5.078 2.062,6.932 c 0,3.506 1.784,6.6 4.496,8.412 -1.656,-0.053 -3.215,-0.508 -4.578,-1.265 -10e-4,0.042 -10e-4,0.085 -10e-4,0.128 0,4.896 3.484,8.98 8.108,9.91 -0.848,0.23 -1.741,0.354 -2.663,0.354 -0.652,0 -1.285,-0.063 -1.902,-0.182 1.287,4.015 5.019,6.938 9.441,7.019 -3.459,2.711 -7.816,4.327 -12.552,4.327 -0.815,0 -1.62,-0.048 -2.411,-0.142 4.474,2.869 9.786,4.541 15.493,4.541 18.591,0 28.756,-15.4 28.756,-28.756 0,-0.438 -0.009,-0.875 -0.028,-1.309 1.974,-1.422 3.688,-3.203 5.042,-5.23 z"
     id="path3"
     style="fill:#ffffff;fill-opacity:1"
     inkscape:connector-curvature="0" /></svg>